<?xml version="1.0" encoding="UTF-8" standalone="no"?>
<!DOCTYPE svg PUBLIC "-//W3C//DTD SVG 1.1//EN" "http://www.w3.org/Graphics/SVG/1.1/DTD/svg11.dtd">
<svg width="100%" height="100%" viewBox="0 0 200 200" version="1.1" xmlns="http://www.w3.org/2000/svg" xmlns:xlink="http://www.w3.org/1999/xlink" xml:space="preserve" xmlns:serif="http://www.serif.com/" style="fill-rule:evenodd;clip-rule:evenodd;stroke-linejoin:round;stroke-miterlimit:2;">
    <g transform="matrix(0.631369,0,0,0.631369,-385.018,-280.997)">
        <g transform="matrix(2.30936,0,0,2.30936,-1127.23,-661.816)">
            <path d="M809.952,520.935C813.413,516.982 817.673,513.74 822.734,511.209C829.834,507.659 837.884,505.884 846.884,505.884C856.084,505.884 864.034,507.859 870.734,511.809C877.434,515.759 882.184,521.234 884.984,528.234L862.934,539.484C859.234,532.184 853.834,528.534 846.734,528.534C841.634,528.534 837.409,530.234 834.059,533.634C830.709,537.034 829.034,541.734 829.034,547.734C829.034,553.834 830.709,558.609 834.059,562.059C837.409,565.509 841.634,567.234 846.734,567.234C853.834,567.234 859.234,563.584 862.934,556.284L884.984,567.534C882.184,574.534 877.434,580.009 870.734,583.959C864.034,587.909 856.084,589.884 846.884,589.884C837.884,589.884 829.834,588.084 822.734,584.484C817.673,581.918 813.413,578.641 809.952,574.652C811.328,573.045 812.576,571.322 813.696,569.484C817.596,563.084 819.546,555.834 819.546,547.734C819.546,539.634 817.596,532.409 813.696,526.059C812.576,524.236 811.328,522.528 809.952,520.935Z" style="fill:rgb(0,220,130);"/>
        </g>
        <g transform="matrix(0.571912,0,0,0.457317,434.251,223.757)">
            <path d="M393.637,927.972C373.447,927.972 356.891,919.262 343.97,901.84C331.048,884.418 324.587,860.305 324.587,829.501C324.587,799.202 331.048,775.468 343.97,758.299C356.891,741.129 373.447,732.545 393.637,732.545C413.826,732.545 430.382,741.129 443.304,758.299C456.225,775.468 462.686,799.202 462.686,829.501C462.686,860.305 456.225,884.418 443.304,901.84C430.382,919.262 413.826,927.972 393.637,927.972Z" style="fill:rgb(0,220,130);"/>
        </g>
    </g>
</svg>
